# xmcd
#
# Track frame offsets:
#	150
#	13284
#	26212
#	39360
#	51883
#	63373
#	76539
#	89624
#	101605
#	114455
#	127151
#	140018
#	152431
#	166724
#	180566
#	189828
#	194128
#	205614
#	218778
#	228945
#
# Disc length: 3173 seconds
#
# Revision: 0
# Processed by: cddbd v1.5.1PL0 Copyright (c) Steve Scherf et al.
# Submitted via: dBpowerAMP V4.0
#
DISCID=0d0c6314
DTITLE=Dean Martin - Ramblin' Rose
DYEAR=1999
DGENRE=Ballad
TTITLE0=Which Way Did My Heart Go
TTITLE1=All Of Me
TTITLE2=I Got The Sun In The Morning
TTITLE3=The Sweetheart of Sigma Chi
TTITLE4=Oh Marie
TTITLE5=Walking My Baby Back Home
TTITLE6=Santa Lucia
TTITLE7=Hold Me
TTITLE8=Memory Lane
TTITLE9=Louise
TTITLE10=One Foot In Heaven
TTITLE11=The Night Is Young And You're So Beautiful
TTITLE12=The Money Song
TTITLE13=That Certain Party
TTITLE14=Someday (You'll Want Me To Want You)
TTITLE15=Peg O My Heart
TTITLE16=Don't Let The Stars Get In YOur Eyes
TTITLE17=Heart And Soul
TTITLE18=You'd Be Surprised
TTITLE19=Ramblin' Rose
EXTD=Platinum Colection
EXTT0=
EXTT1=
EXTT2=
EXTT3=
EXTT4=
EXTT5=
EXTT6=
EXTT7=
EXTT8=
EXTT9=
EXTT10=
EXTT11=
EXTT12=
EXTT13=
EXTT14=
EXTT15=
EXTT16=
EXTT17=
EXTT18=
EXTT19=
PLAYORDER=
